<?xml version="1.0" encoding="UTF-8" standalone="no"?>
<!DOCTYPE svg PUBLIC "-//W3C//DTD SVG 1.1//EN" "http://www.w3.org/Graphics/SVG/1.1/DTD/svg11.dtd">
<svg width="100%" height="100%" viewBox="0 0 287 289" version="1.1" xmlns="http://www.w3.org/2000/svg" xmlns:xlink="http://www.w3.org/1999/xlink" xml:space="preserve" xmlns:serif="http://www.serif.com/" style="fill-rule:evenodd;clip-rule:evenodd;stroke-linejoin:round;stroke-miterlimit:2;fill:#F02F5C">
    <g transform="matrix(0.978863,0,0,0.971828,-54.4346,-108.615)">
        <path id="path0" d="M167.901,119.941C146.787,125.486 121.166,139.275 105.162,153.708L90.571,166.866L91.993,190.223C92.775,203.07 94.642,216.77 96.142,220.669L98.87,227.757L105.816,218.2C147.953,160.216 232.907,128.684 290.322,149.718C302.189,154.066 284.638,140.135 268.047,132.038C235.664,116.233 198.92,111.795 167.901,119.941M215.665,165.483C197.518,169.164 169.545,182.365 154.321,194.431L139.506,206.173L169.136,207.655C198.782,209.138 212.896,212.194 235.535,222.035C250.616,228.59 250.105,229.383 246.985,204.277C242.037,164.459 239.036,160.742 215.665,165.483M260.721,175.661C273.647,222.841 262.739,280.93 233.463,320.812C212.823,348.929 247.65,336.821 274.252,306.631C301.448,275.768 312.066,247.692 312.229,206.208L312.346,176.614L298.765,171.243C291.296,168.289 278.865,165.098 271.141,164.152L257.097,162.432L260.721,175.661M67.265,210.082C49.401,257.813 60.825,325.285 89.206,339.667C117.79,354.151 150.491,359.87 179.63,355.479C205.238,351.621 208.275,349.575 193.803,345.931C139.594,332.28 89.352,277.704 77.648,219.753C75.59,209.568 73.574,200.123 73.166,198.765C72.758,197.407 70.103,202.5 67.265,210.082M332.175,216.271C320.674,320.339 222.572,394.692 127.16,371.654C103.811,366.016 103.267,367.89 124.346,381.357C217.826,441.079 340.352,377.804 345.141,267.334C346.764,229.881 335.551,185.721 332.175,216.271M130.069,227.768C113.377,231.218 104.82,246.84 112.158,260.467C132.368,297.994 192.482,338.199 207.739,324.392C211.928,320.601 211.152,319.387 193.118,301.523C173.335,281.925 161.675,264.659 151.775,240.301C145.167,224.043 145.937,224.487 130.069,227.768M165.432,225.856C165.432,240.405 202.888,291.747 220.826,301.786C227.078,305.285 247.457,258.325 243.81,248.823C240.044,239.009 165.432,217.145 165.432,225.856"/>
    </g>
</svg>
